<?xml version="1.0" standalone="yes"?>
<svg width="40" height="40" xmlns="http://www.w3.org/2000/svg" xmlns:svg="http://www.w3.org/2000/svg" xmlns:se="http://svg-edit.googlecode.com" se:nonce="76908">
 <g class="layer">
  <title>Layer 1</title>
  <path d="m20,0c-11.03,0 -20,8.97 -20,20s8.97,20 20,20s20,-8.97 20,-20s-8.97,-20 -20,-20zm0,36c-8.82,0 -16,-7.18 -16,-16s7.18,-16 16,-16s16,7.18 16,16s-7.18,16 -16,16zm6,-16c0,3.31 -2.69,6 -6,6s-6,-2.69 -6,-6s2.69,-6 6,-6s6,2.69 6,6z" id="svg_76908_1"/>
 </g>
</svg>