<?xml version="1.0" standalone="yes"?>
<svg width="16" height="16" xmlns="http://www.w3.org/2000/svg" xmlns:svg="http://www.w3.org/2000/svg" xmlns:se="http://svg-edit.googlecode.com" class="bi bi-caret-left-square-fill" se:nonce="15851">
 <g class="layer">
  <title>Layer 1</title>
  <path d="m0,2a2,2 0 0 1 2,-2l12,0a2,2 0 0 1 2,2l0,12a2,2 0 0 1 -2,2l-12,0a2,2 0 0 1 -2,-2l0,-12zm10.5,10l0,-8a0.5,0.5 0 0 0 -0.83,-0.37l-4.5,4a0.5,0.5 0 0 0 0,0.74l4.5,4a0.5,0.5 0 0 0 0.83,-0.37z" id="svg_15851_1"/>
 </g>
</svg>