<?xml version="1.0" standalone="yes"?>
<svg width="16" height="16" xmlns="http://www.w3.org/2000/svg" xmlns:svg="http://www.w3.org/2000/svg" xmlns:se="http://svg-edit.googlecode.com" class="bi bi-caret-right-square-fill" se:nonce="26428">
 <g class="layer">
  <title>Layer 1</title>
  <path d="m0,2a2,2 0 0 1 2,-2l12,0a2,2 0 0 1 2,2l0,12a2,2 0 0 1 -2,2l-12,0a2,2 0 0 1 -2,-2l0,-12zm5.5,10a0.5,0.5 0 0 0 0.83,0.37l4.5,-4a0.5,0.5 0 0 0 0,-0.74l-4.5,-4a0.5,0.5 0 0 0 -0.83,0.37l0,8z" id="svg_26428_1"/>
 </g>
</svg>