<?xml version="1.0" standalone="yes"?>
<svg width="42" height="36" xmlns="http://www.w3.org/2000/svg" xmlns:svg="http://www.w3.org/2000/svg" xmlns:se="http://svg-edit.googlecode.com" se:nonce="16701">
 <g class="layer">
  <title>Layer 1</title>
  <path d="m28,18c0,-2.21 -1.79,-4 -4,-4s-4,1.79 -4,4s1.79,4 4,4s4,-1.79 4,-4zm-4,-18c-9.94,0 -18,8.06 -18,18l-6,0l8,8l8,-8l-6,0c0,-7.73 6.27,-14 14,-14s14,6.27 14,14s-6.27,14 -14,14c-3.03,0 -5.82,-0.97 -8.12,-2.61l-2.83,2.87c3.04,2.34 6.83,3.74 10.95,3.74c9.94,0 18,-8.06 18,-18s-8.06,-18 -18,-18z" id="svg_16701_1"/>
 </g>
</svg>